HIERARCHY
ROOT mixamorig:Hips
{
	OFFSET 0.000002 96.852760 3.073963
	CHANNELS 6 Xposition Yposition Zposition Zrotation Yrotation Xrotation 
	JOINT mixamorig:Spine
	{
		OFFSET 0.000001 13.784841 0.064361
		CHANNELS 3 Zrotation Yrotation Xrotation
		JOINT mixamorig:Spine1
		{
			OFFSET 0.000000 12.017486 0.405859
			CHANNELS 3 Zrotation Yrotation Xrotation
			JOINT mixamorig:Spine2
			{
				OFFSET 0.000000 17.810652 0.430075
				CHANNELS 3 Zrotation Yrotation Xrotation
				JOINT mixamorig:Neck
				{
					OFFSET 0.000000 39.117613 11.976992
					CHANNELS 3 Zrotation Yrotation Xrotation
					JOINT mixamorig:Head
					{
						OFFSET -0.000000 14.552526 15.664096
						CHANNELS 3 Zrotation Yrotation Xrotation
						JOINT mixamorig:HeadTop_End
						{
							OFFSET -0.000000 15.601730 7.553741
							CHANNELS 3 Zrotation Yrotation Xrotation
							End Site
							{
								OFFSET 0.000000 0.000000 0.000000
							}
						}
						JOINT mixamorig:LeftEye
						{
							OFFSET 3.528726 2.462143 12.838181
							CHANNELS 3 Zrotation Yrotation Xrotation
							End Site
							{
								OFFSET 0.000000 0.000000 0.000000
							}
						}
						JOINT mixamorig:RightEye
						{
							OFFSET -3.528733 2.462128 12.838158
							CHANNELS 3 Zrotation Yrotation Xrotation
							End Site
							{
								OFFSET 0.000000 0.000000 0.000000
							}
						}
						JOINT mixamorig:Jaw
						{
							OFFSET -0.000003 -2.317795 3.620705
							CHANNELS 3 Zrotation Yrotation Xrotation
							End Site
							{
								OFFSET 0.000000 0.000000 0.000000
							}
						}
					}
				}
				JOINT mixamorig:LeftShoulder
				{
					OFFSET 17.399467 24.614195 1.157871
					CHANNELS 3 Zrotation Yrotation Xrotation
					JOINT mixamorig:LeftArm
					{
						OFFSET 18.966230 5.773894 1.835135
						CHANNELS 3 Zrotation Yrotation Xrotation
						JOINT mixamorig:LeftForeArm
						{
							OFFSET 49.301285 0.000015 -0.000001
							CHANNELS 3 Zrotation Yrotation Xrotation
							JOINT mixamorig:LeftHand
							{
								OFFSET 31.599922 -0.000045 0.551539
								CHANNELS 3 Zrotation Yrotation Xrotation
								JOINT mixamorig:LeftHandThumb1
								{
									OFFSET 5.970345 -4.397171 7.164893
									CHANNELS 3 Zrotation Yrotation Xrotation
									JOINT mixamorig:LeftHandThumb2
									{
										OFFSET 5.780449 -3.364914 3.473031
										CHANNELS 3 Zrotation Yrotation Xrotation
										JOINT mixamorig:LeftHandThumb3
										{
											OFFSET 5.761932 -3.354172 3.461920
											CHANNELS 3 Zrotation Yrotation Xrotation
											JOINT mixamorig:LeftHandThumb4
											{
												OFFSET 7.832870 -4.559708 4.706182
												CHANNELS 3 Zrotation Yrotation Xrotation
												End Site
												{
													OFFSET 0.000000 0.000000 0.000000
												}
											}
										}
									}
								}
								JOINT mixamorig:LeftHandIndex1
								{
									OFFSET 21.159744 -0.498764 6.563175
									CHANNELS 3 Zrotation Yrotation Xrotation
									JOINT mixamorig:LeftHandIndex2
									{
										OFFSET 7.535339 0.000000 0.131530
										CHANNELS 3 Zrotation Yrotation Xrotation
										JOINT mixamorig:LeftHandIndex3
										{
											OFFSET 7.511169 -0.000015 0.131109
											CHANNELS 3 Zrotation Yrotation Xrotation
											JOINT mixamorig:LeftHandIndex4
											{
												OFFSET 10.210831 -0.000031 0.178228
												CHANNELS 3 Zrotation Yrotation Xrotation
												End Site
												{
													OFFSET 0.000000 0.000000 0.000000
												}
											}
										}
									}
								}
								JOINT mixamorig:LeftHandMiddle1
								{
									OFFSET 23.331192 -0.008621 0.390773
									CHANNELS 3 Zrotation Yrotation Xrotation
									JOINT mixamorig:LeftHandMiddle2
									{
										OFFSET 6.995529 0.000000 0.122108
										CHANNELS 3 Zrotation Yrotation Xrotation
										JOINT mixamorig:LeftHandMiddle3
										{
											OFFSET 7.014908 0.000000 0.122445
											CHANNELS 3 Zrotation Yrotation Xrotation
											JOINT mixamorig:LeftHandMiddle4
											{
												OFFSET 7.720398 -0.000015 0.134760
												CHANNELS 3 Zrotation Yrotation Xrotation
												End Site
												{
													OFFSET 0.000000 0.000000 0.000000
												}
											}
										}
									}
								}
								JOINT mixamorig:LeftHandRing1
								{
									OFFSET 22.796921 -0.103653 -6.119989
									CHANNELS 3 Zrotation Yrotation Xrotation
									JOINT mixamorig:LeftHandRing2
									{
										OFFSET 6.407669 0.000000 0.111846
										CHANNELS 3 Zrotation Yrotation Xrotation
										JOINT mixamorig:LeftHandRing3
										{
											OFFSET 6.149323 0.000000 0.107337
											CHANNELS 3 Zrotation Yrotation Xrotation
											JOINT mixamorig:LeftHandRing4
											{
												OFFSET 6.144455 -0.000015 0.107252
												CHANNELS 3 Zrotation Yrotation Xrotation
												End Site
												{
													OFFSET 0.000000 0.000000 0.000000
												}
											}
										}
									}
								}
								JOINT mixamorig:LeftHandPinky1
								{
									OFFSET 19.078049 -0.461823 -11.111940
									CHANNELS 3 Zrotation Yrotation Xrotation
									JOINT mixamorig:LeftHandPinky2
									{
										OFFSET 4.918869 0.000000 0.085859
										CHANNELS 3 Zrotation Yrotation Xrotation
										JOINT mixamorig:LeftHandPinky3
										{
											OFFSET 5.232224 0.000000 0.091329
											CHANNELS 3 Zrotation Yrotation Xrotation
											JOINT mixamorig:LeftHandPinky4
											{
												OFFSET 5.570877 0.000000 0.097240
												CHANNELS 3 Zrotation Yrotation Xrotation
												End Site
												{
													OFFSET 0.000000 0.000000 0.000000
												}
											}
										}
									}
								}
							}
						}
					}
				}
				JOINT mixamorig:RightShoulder
				{
					OFFSET -17.399502 24.614256 1.157873
					CHANNELS 3 Zrotation Yrotation Xrotation
					JOINT mixamorig:RightArm
					{
						OFFSET -18.966200 5.773998 1.835130
						CHANNELS 3 Zrotation Yrotation Xrotation
						JOINT mixamorig:RightForeArm
						{
							OFFSET -49.301308 0.000015 0.000001
							CHANNELS 3 Zrotation Yrotation Xrotation
							JOINT mixamorig:RightHand
							{
								OFFSET -31.600189 -0.000015 0.551553
								CHANNELS 3 Zrotation Yrotation Xrotation
								JOINT mixamorig:RightHandThumb1
								{
									OFFSET -5.969864 -4.397003 7.164930
									CHANNELS 3 Zrotation Yrotation Xrotation
									JOINT mixamorig:RightHandThumb2
									{
										OFFSET -5.780273 -3.365005 3.473007
										CHANNELS 3 Zrotation Yrotation Xrotation
										JOINT mixamorig:RightHandThumb3
										{
											OFFSET -5.762466 -3.353989 3.461901
											CHANNELS 3 Zrotation Yrotation Xrotation
											JOINT mixamorig:RightHandThumb4
											{
												OFFSET -7.833069 -4.559998 4.706217
												CHANNELS 3 Zrotation Yrotation Xrotation
												End Site
												{
													OFFSET 0.000000 0.000000 0.000000
												}
											}
										}
									}
								}
								JOINT mixamorig:RightHandIndex1
								{
									OFFSET -21.159668 -0.499008 6.563131
									CHANNELS 3 Zrotation Yrotation Xrotation
									JOINT mixamorig:RightHandIndex2
									{
										OFFSET -7.534851 0.000000 0.131519
										CHANNELS 3 Zrotation Yrotation Xrotation
										JOINT mixamorig:RightHandIndex3
										{
											OFFSET -7.511841 0.000000 0.131117
											CHANNELS 3 Zrotation Yrotation Xrotation
											JOINT mixamorig:RightHandIndex4
											{
												OFFSET -10.210464 0.000000 0.178220
												CHANNELS 3 Zrotation Yrotation Xrotation
												End Site
												{
													OFFSET 0.000000 0.000000 0.000000
												}
											}
										}
									}
								}
								JOINT mixamorig:RightHandMiddle1
								{
									OFFSET -23.330734 -0.009003 0.390770
									CHANNELS 3 Zrotation Yrotation Xrotation
									JOINT mixamorig:RightHandMiddle2
									{
										OFFSET -6.995941 0.000000 0.122123
										CHANNELS 3 Zrotation Yrotation Xrotation
										JOINT mixamorig:RightHandMiddle3
										{
											OFFSET -7.014923 -0.000015 0.122463
											CHANNELS 3 Zrotation Yrotation Xrotation
											JOINT mixamorig:RightHandMiddle4
											{
												OFFSET -7.719833 0.000015 0.134769
												CHANNELS 3 Zrotation Yrotation Xrotation
												End Site
												{
													OFFSET 0.000000 0.000000 0.000000
												}
											}
										}
									}
								}
								JOINT mixamorig:RightHandRing1
								{
									OFFSET -22.796280 -0.104004 -6.120000
									CHANNELS 3 Zrotation Yrotation Xrotation
									JOINT mixamorig:RightHandRing2
									{
										OFFSET -6.408035 0.000000 0.111853
										CHANNELS 3 Zrotation Yrotation Xrotation
										JOINT mixamorig:RightHandRing3
										{
											OFFSET -6.149078 0.000000 0.107332
											CHANNELS 3 Zrotation Yrotation Xrotation
											JOINT mixamorig:RightHandRing4
											{
												OFFSET -6.145020 0.000000 0.107262
												CHANNELS 3 Zrotation Yrotation Xrotation
												End Site
												{
													OFFSET 0.000000 0.000000 0.000000
												}
											}
										}
									}
								}
								JOINT mixamorig:RightHandPinky1
								{
									OFFSET -19.077820 -0.462006 -11.111948
									CHANNELS 3 Zrotation Yrotation Xrotation
									JOINT mixamorig:RightHandPinky2
									{
										OFFSET -4.919266 0.000000 0.085865
										CHANNELS 3 Zrotation Yrotation Xrotation
										JOINT mixamorig:RightHandPinky3
										{
											OFFSET -5.232193 0.000000 0.091328
											CHANNELS 3 Zrotation Yrotation Xrotation
											JOINT mixamorig:RightHandPinky4
											{
												OFFSET -5.570129 0.000000 0.097225
												CHANNELS 3 Zrotation Yrotation Xrotation
												End Site
												{
													OFFSET 0.000000 0.000000 0.000000
												}
											}
										}
									}
								}
							}
						}
						JOINT mixamorig:RightArmour1
						{
							OFFSET -5.012878 18.471115 -1.467260
							CHANNELS 3 Zrotation Yrotation Xrotation
							JOINT mixamorig:RightArmour2
							{
								OFFSET 3.884926 -9.462708 -18.584888
								CHANNELS 3 Zrotation Yrotation Xrotation
								JOINT mixamorig:RightArmour3
								{
									OFFSET -2.025597 -10.683548 -1.904895
									CHANNELS 3 Zrotation Yrotation Xrotation
									End Site
									{
										OFFSET 0.000000 0.000000 0.000000
									}
								}
							}
							JOINT mixamorig:RightArmour4
							{
								OFFSET -2.648941 -11.494659 22.195312
								CHANNELS 3 Zrotation Yrotation Xrotation
								JOINT mixamorig:RightArmour5
								{
									OFFSET -4.768017 -9.864624 1.350945
									CHANNELS 3 Zrotation Yrotation Xrotation
									End Site
									{
										OFFSET 0.000000 0.000000 0.000000
									}
								}
							}
						}
					}
				}
			}
		}
	}
	JOINT mixamorig:LeftUpLeg
	{
		OFFSET 19.899147 -7.885054 -3.429541
		CHANNELS 3 Zrotation Yrotation Xrotation
		JOINT mixamorig:LeftLeg
		{
			OFFSET 0.000090 -36.607994 11.199699
			CHANNELS 3 Zrotation Yrotation Xrotation
			JOINT mixamorig:LeftFoot
			{
				OFFSET -0.000091 -29.783565 -13.460409
				CHANNELS 3 Zrotation Yrotation Xrotation
				JOINT mixamorig:LeftToeBase
				{
					OFFSET 0.000006 -22.564229 15.008865
					CHANNELS 3 Zrotation Yrotation Xrotation
					JOINT mixamorig:LeftToe_End
					{
						OFFSET -0.000013 0.010062 16.631996
						CHANNELS 3 Zrotation Yrotation Xrotation
						End Site
						{
							OFFSET 0.000000 0.000000 0.000000
						}
					}
				}
			}
		}
	}
	JOINT mixamorig:RightUpLeg
	{
		OFFSET -19.899101 -7.885063 -3.429541
		CHANNELS 3 Zrotation Yrotation Xrotation
		JOINT mixamorig:RightLeg
		{
			OFFSET -0.000004 -36.608005 11.199677
			CHANNELS 3 Zrotation Yrotation Xrotation
			JOINT mixamorig:RightFoot
			{
				OFFSET 0.000002 -29.783602 -13.460386
				CHANNELS 3 Zrotation Yrotation Xrotation
				JOINT mixamorig:RightToeBase
				{
					OFFSET 0.000005 -22.564204 15.008891
					CHANNELS 3 Zrotation Yrotation Xrotation
					JOINT mixamorig:RightToe_End
					{
						OFFSET 0.000002 0.010016 16.631941
						CHANNELS 3 Zrotation Yrotation Xrotation
						End Site
						{
							OFFSET 0.000000 0.000000 0.000000
						}
					}
				}
			}
		}
	}
	JOINT mixamorig:FrontCloth1
	{
		OFFSET -0.000002 -19.940689 22.170229
		CHANNELS 3 Zrotation Yrotation Xrotation
		JOINT mixamorig:FrontCloth2
		{
			OFFSET -0.000000 -10.763329 0.000000
			CHANNELS 3 Zrotation Yrotation Xrotation
			JOINT mixamorig:FrontCloth3
			{
				OFFSET -0.000000 -13.749531 0.000000
				CHANNELS 3 Zrotation Yrotation Xrotation
				JOINT mixamorig:FrontCloth4
				{
					OFFSET -0.000000 -14.182621 0.000000
					CHANNELS 3 Zrotation Yrotation Xrotation
					End Site
					{
						OFFSET 0.000000 0.000000 0.000000
					}
				}
			}
		}
	}
	JOINT mixamorig:BackCloth1
	{
		OFFSET -0.000002 -5.419212 -29.327024
		CHANNELS 3 Zrotation Yrotation Xrotation
		JOINT mixamorig:BackCloth2
		{
			OFFSET -0.000000 -15.308617 0.000000
			CHANNELS 3 Zrotation Yrotation Xrotation
			JOINT mixamorig:BackCloth3
			{
				OFFSET -0.000000 -17.777119 0.000000
				CHANNELS 3 Zrotation Yrotation Xrotation
				JOINT mixamorig:BackCloth4
				{
					OFFSET -0.000000 -15.545357 0.000000
					CHANNELS 3 Zrotation Yrotation Xrotation
					End Site
					{
						OFFSET 0.000000 0.000000 0.000000
					}
				}
			}
		}
	}
}
MOTION
Frames: 4
Frame Time: 0.016667
4.631320 94.405907 17.474365 -7.863314 -4.419276 0.858575 1.226383 -4.964361 3.423492 0.391678 -0.346632 2.514528 0.361126 -0.322029 2.501490 8.880999 -4.454289 0.506058 3.566123 -12.575557 -7.011087 0.000000 -0.000001 0.000000 0.000000 -0.000001 0.000000 0.000000 -0.000001 0.000000 0.000000 0.000000 -0.000003 -5.778081 -31.858886 4.672633 -3.620896 -59.068121 -1.700239 25.648697 -80.291729 -35.070735 -13.582992 -14.148336 15.288541 8.609999 -8.285941 -1.543797 -29.640417 48.137442 -0.320766 24.027742 50.128207 6.995810 0.000002 0.000008 0.000002 -79.008133 10.070392 -0.738526 -82.652472 6.627282 -4.077602 -96.158128 6.873707 -5.438409 -0.000001 -0.000000 -0.000003 -74.340026 5.989253 -5.562063 -107.616794 6.830036 -6.611796 -72.132213 6.219515 -3.079559 -0.000001 0.000000 0.000001 -79.855316 3.311951 -6.137201 -94.170495 6.857563 -5.235074 -59.762335 5.517236 -2.024768 0.000002 -0.000000 0.000001 -85.154058 6.098568 -14.789843 -54.697279 5.166733 -1.640759 -81.112570 6.579090 -3.927116 -0.000001 0.000001 -0.000002 -13.153102 16.226419 -24.299055 -14.163169 15.601778 -25.646275 7.733908 27.882970 1.980846 -31.773401 -4.257562 -41.346467 -8.230550 10.136741 -2.480581 0.493114 -37.460071 7.144043 -25.832295 -34.535559 2.787327 0.000003 0.000000 -0.000002 51.083295 -5.742457 3.406047 82.668518 -5.444755 -3.035205 96.143981 -5.688726 -4.113939 0.000003 -0.000000 0.000001 73.611603 -4.805499 -4.559971 107.577225 -5.694623 -5.052916 43.729109 -3.469977 -0.590409 -0.000003 -0.000001 0.000000 92.024940 -1.804792 -6.088567 86.225210 -5.533613 -3.313899 41.344817 -3.300524 -0.491222 -0.000002 -0.000002 -0.000001 97.825884 -2.705070 -14.218534 51.491279 -3.990147 -0.960994 53.303801 -4.103958 -1.057411 0.000000 0.000001 0.000000 0.000001 0.000005 -0.000007 -0.000003 -0.000000 -0.000001 -0.000002 0.000000 0.000000 0.000004 -0.000001 -0.000001 -0.000004 0.000004 -0.000000 14.926851 14.496435 -17.271585 4.600809 9.038717 28.742020 3.240500 0.718563 -1.823415 -2.423466 -0.101859 -3.511136 -0.000000 0.000001 -0.000003 -8.347720 -14.831369 -39.598327 -11.898157 -7.315319 61.939266 6.136565 -19.891328 18.091165 0.000007 -0.000003 3.854601 0.000002 -0.000002 -0.000004 0.000001 -0.000000 0.000005 -0.000001 0.000000 0.000000 -0.000001 0.000000 0.000000 -0.000001 0.000000 0.000000 0.000003 0.000000 0.000000 0.000000 0.000000 0.000000 0.000000 0.000000 0.000000 0.000000 0.000000 0.000000 
2.544624 94.775475 18.009624 -7.006313 -3.365765 1.239416 -0.283160 -5.016245 2.615653 0.213115 -0.359666 1.925138 0.189189 -0.339554 1.910154 10.368703 -4.835601 0.698344 2.545229 -12.419272 -4.743219 0.000000 0.000000 0.000000 0.000000 0.000000 0.000000 0.000000 0.000000 0.000000 0.000002 0.000001 -0.000003 -7.234993 -32.352638 5.173906 -2.586874 -58.060525 0.155668 25.471064 -79.857850 -35.098148 -13.642702 -13.968554 11.818748 8.609989 -8.285955 -1.543797 -29.640411 48.137440 -0.320775 24.027749 50.128184 6.995812 0.000001 0.000009 0.000004 -79.008155 10.070393 -0.738519 -82.652478 6.627279 -4.077596 -96.158101 6.873707 -5.438408 0.000000 0.000000 -0.000004 -74.340032 5.989260 -5.562041 -107.616781 6.830034 -6.611782 -72.132206 6.219511 -3.079550 0.000001 0.000000 0.000000 -79.855316 3.311959 -6.137190 -94.170475 6.857568 -5.235077 -59.762328 5.517253 -2.024778 0.000000 -0.000001 0.000000 -85.154092 6.098565 -14.789832 -54.697272 5.166731 -1.640769 -81.112557 6.579097 -3.927120 0.000001 0.000000 -0.000001 -12.460223 13.282817 -23.886102 -14.724078 26.886814 -13.776314 7.589570 8.500337 0.764853 -24.333077 3.788822 -44.505684 -8.230551 10.136742 -2.480584 0.493097 -37.460064 7.144039 -25.832312 -34.535575 2.787333 -0.000001 -0.000003 -0.000004 51.083296 -5.742453 3.406049 82.668519 -5.444738 -3.035203 96.143981 -5.688728 -4.113949 -0.000001 0.000002 -0.000000 73.611610 -4.805510 -4.559978 107.577210 -5.694598 -5.052903 43.729116 -3.469990 -0.590415 0.000002 -0.000001 -0.000000 92.024946 -1.804804 -6.088583 86.225237 -5.533627 -3.313878 41.344817 -3.300511 -0.491219 0.000000 -0.000002 -0.000001 97.825898 -2.705084 -14.218541 51.491286 -3.990136 -0.961001 53.303793 -4.103992 -1.057405 0.000000 0.000003 0.000000 0.000004 0.000000 -0.000003 -0.000007 -0.000001 0.000002 -0.000006 0.000001 0.000006 0.000006 -0.000005 -0.000003 0.000003 0.000004 -0.000001 12.283457 15.465347 -19.095227 4.179439 7.477885 32.520840 0.357908 0.256289 -3.030655 -2.653170 -0.109892 -3.575177 0.000000 -0.000003 -0.000003 -8.823289 -11.427047 -32.480037 -9.365340 -8.456687 48.612358 8.225535 -17.798451 21.304083 -0.000008 -0.000016 2.290502 -0.000001 0.000004 -0.000004 0.000000 0.000000 0.000005 0.000000 0.000000 0.000000 0.000000 0.000000 0.000000 0.000000 0.000000 0.000000 0.000003 0.000000 0.000000 0.000000 0.000000 0.000000 0.000000 0.000000 0.000000 0.000000 0.000000 0.000000 
0.470577 94.653267 18.537621 -5.969992 -2.264160 1.596721 -1.802610 -5.097265 1.900610 0.095268 -0.376980 1.419890 0.077183 -0.359173 1.403705 11.427692 -5.090075 0.669207 1.639676 -12.175613 -2.713963 0.000000 0.000000 0.000000 0.000000 0.000000 0.000000 0.000000 0.000000 0.000000 0.000001 -0.000001 -0.000007 -8.619357 -32.804794 5.726361 -1.873757 -56.723222 1.900357 27.013366 -80.234186 -36.728443 -13.929914 -13.781908 8.627036 8.610008 -8.285955 -1.543804 -29.640416 48.137446 -0.320757 24.027738 50.128210 6.995808 0.000004 0.000008 0.000003 -79.008148 10.070398 -0.738536 -82.652444 6.627287 -4.077601 -96.158094 6.873717 -5.438409 0.000000 0.000000 -0.000008 -74.340039 5.989262 -5.562056 -107.616802 6.830041 -6.611773 -72.132227 6.219508 -3.079563 0.000000 0.000000 0.000000 -79.855316 3.311949 -6.137190 -94.170481 6.857565 -5.235081 -59.762328 5.517238 -2.024765 -0.000001 -0.000002 0.000002 -85.154065 6.098563 -14.789828 -54.697290 5.166734 -1.640765 -81.112557 6.579081 -3.927098 -0.000001 -0.000001 0.000000 -12.165028 10.248108 -23.540251 -10.818117 34.377288 -1.720999 8.362113 -2.024035 0.137330 -17.876426 11.159562 -39.240473 -8.230544 10.136748 -2.480571 0.493096 -37.460062 7.144050 -25.832317 -34.535571 2.787329 0.000001 -0.000001 -0.000000 51.083300 -5.742446 3.406048 82.668484 -5.444734 -3.035216 96.143981 -5.688738 -4.113949 0.000000 0.000001 0.000000 73.611617 -4.805506 -4.559981 107.577212 -5.694632 -5.052885 43.729110 -3.469961 -0.590413 0.000000 -0.000002 0.000000 92.024946 -1.804805 -6.088573 86.225266 -5.533614 -3.313895 41.344824 -3.300507 -0.491223 0.000000 0.000001 0.000000 97.825878 -2.705083 -14.218536 51.491258 -3.990147 -0.960992 53.303800 -4.103974 -1.057399 0.000002 -0.000002 -0.000002 -0.000003 0.000003 -0.000004 -0.000002 -0.000002 0.000002 0.000003 0.000000 0.000000 0.000003 -0.000005 0.000002 -0.000002 0.000002 0.000003 9.243951 15.986854 -20.287584 3.498393 6.002199 35.331597 -2.520704 0.323453 -4.522141 -2.646778 -0.111000 -3.732462 0.000000 0.000000 -0.000003 -9.192219 -8.955546 -25.272782 -6.197946 -8.170883 34.877867 9.001508 -15.698039 23.262691 9.745839 0.162179 -7.103206 -0.000001 -0.000000 -0.000002 0.000000 0.000000 0.000005 0.000000 0.000000 0.000000 0.000000 0.000000 0.000000 0.000000 0.000000 0.000000 0.000002 0.000000 0.000000 0.000000 0.000000 0.000000 0.000000 0.000000 0.000000 0.000000 0.000000 0.000000 
-1.489160 94.186241 19.021040 -5.057541 -1.108934 1.865335 -2.971336 -5.214753 1.334730 0.060456 -0.395187 1.065290 0.046059 -0.379911 1.049142 11.948236 -5.157040 0.468037 0.923935 -11.780565 -1.133153 -0.000001 0.000003 -0.000000 -0.000001 0.000003 -0.000000 -0.000001 0.000003 -0.000000 -0.000003 0.000001 -0.000005 -9.968673 -33.027896 6.117148 -1.922131 -55.329486 3.623100 31.127410 -81.259624 -40.815612 -14.429177 -13.602555 6.292187 8.610006 -8.285947 -1.543793 -29.640420 48.137456 -0.320778 24.027741 50.128198 6.995797 0.000004 0.000009 0.000005 -79.008113 10.070388 -0.738519 -82.652472 6.627280 -4.077599 -96.158074 6.873712 -5.438405 0.000000 0.000000 -0.000001 -74.340025 5.989252 -5.562047 -107.616761 6.830036 -6.611776 -72.132207 6.219500 -3.079559 0.000001 0.000000 -0.000002 -79.855316 3.311946 -6.137202 -94.170481 6.857582 -5.235072 -59.762314 5.517237 -2.024773 -0.000002 -0.000000 -0.000001 -85.154058 6.098558 -14.789835 -54.697252 5.166736 -1.640757 -81.112577 6.579080 -3.927105 0.000005 -0.000001 -0.000001 -12.264125 7.384848 -23.248783 -6.559237 36.384354 9.637608 8.278983 -2.410609 0.023812 -11.416694 15.963426 -26.882325 -8.230546 10.136746 -2.480566 0.493107 -37.460060 7.144046 -25.832314 -34.535579 2.787326 0.000003 0.000001 0.000003 51.083309 -5.742456 3.406057 82.668478 -5.444736 -3.035208 96.143981 -5.688738 -4.113948 -0.000001 -0.000000 -0.000003 73.611610 -4.805503 -4.559971 107.577210 -5.694593 -5.052908 43.729116 -3.470001 -0.590416 0.000000 0.000002 0.000000 92.024940 -1.804814 -6.088558 86.225237 -5.533615 -3.313901 41.344799 -3.300530 -0.491222 0.000000 0.000001 0.000000 97.825891 -2.705089 -14.218548 51.491258 -3.990137 -0.960986 53.303800 -4.103970 -1.057407 0.000001 -0.000002 0.000001 -0.000001 0.000002 -0.000003 -0.000007 -0.000003 -0.000002 0.000002 0.000002 0.000000 0.000005 -0.000003 0.000004 -0.000003 -0.000002 0.000000 6.153035 15.912840 -20.719831 3.214091 5.313394 36.782455 -4.307800 1.206969 -6.369659 0.713464 0.032339 -5.441234 0.000000 -0.000001 -0.000002 -9.369521 -6.918382 -17.359009 -3.398637 -6.767864 20.453549 8.239851 -13.757544 24.044125 7.851829 0.742204 -15.197814 0.000000 0.000000 -0.000003 0.000000 0.000000 0.000005 0.000000 0.000000 0.000000 0.000000 0.000000 0.000000 0.000000 0.000000 0.000000 0.000002 0.000000 0.000000 0.000000 0.000000 0.000000 0.000000 0.000000 0.000000 0.000000 0.000000 0.000000 
